<svg height="255" width="95" fill="none" xmlns="http://www.w3.org/2000/svg" viewBox="0 0 93 259"><path fill-rule="evenodd" clip-rule="evenodd" d="M92.5 6 82.5.227V5h-2.133a1 1 0 1 0 0 2H82.5v4.774L92.5 6Zm-91-1a1 1 0 0 0 0 2h2.022a1 1 0 1 0 0-2H1.5Zm8.089 0a1 1 0 1 0 0 2h4.044a1 1 0 1 0 0-2H9.59ZM19.7 5a1 1 0 1 0 0 2h4.044a1 1 0 1 0 0-2H19.7Zm10.111 0a1 1 0 1 0 0 2h4.045a1 1 0 0 0 0-2H29.81Zm10.111 0a1 1 0 1 0 0 2h4.045a1 1 0 1 0 0-2h-4.045Zm10.22 2c-.609 0-1.193.097-1.74.275a1 1 0 1 1-.617-1.902A7.637 7.637 0 0 1 50.033 5h4.045a1 1 0 1 1 0 2h-3.936Zm10.002-2a1 1 0 0 0 0 2h4.045a1 1 0 1 0 0-2h-4.045Zm10.112 0a1 1 0 1 0 0 2H74.3a1 1 0 1 0 0-2h-4.044ZM1.5 91a1 1 0 1 1 0-2h1.867a1 1 0 1 1 0 2H1.5Zm7.467 0a1 1 0 1 1 0-2H12.7a1 1 0 1 1 0 2H8.967Zm9.333 0a1 1 0 1 1 0-2h3.733a1 1 0 1 1 0 2H18.3Zm9.333 0a1 1 0 1 1 0-2H29.5c.693 0 1.373-.054 2.036-.158a1 1 0 0 1 .31 1.975c-.765.12-1.549.183-2.346.183h-1.867Zm10.685-2.864a1 1 0 0 1-1.177-1.617 13.083 13.083 0 0 0 2.878-2.878 1 1 0 0 1 1.617 1.177 15.085 15.085 0 0 1-3.318 3.318Zm6-9.79a1 1 0 0 1-1.976-.31A13.11 13.11 0 0 0 42.5 76v-2.112a1 1 0 1 1 2 0V76c0 .797-.062 1.581-.182 2.346Zm.182-10.793a1 1 0 1 1-2 0V63.33a1 1 0 0 1 2 0v4.223Zm0-10.558a1 1 0 1 1-2 0V52.77a1 1 0 1 1 2 0v4.224Zm0-10.559a1 1 0 1 1-2 0v-4.223a1 1 0 1 1 2 0v4.223Zm0-10.558a1 1 0 1 1-2 0v-4.224a1 1 0 1 1 2 0v4.224Zm0-10.559a1 1 0 1 1-2 0v-4.223a1 1 0 1 1 2 0v4.223Zm0-10.558a1 1 0 1 1-2 0v-2.112c0-.823.13-1.618.373-2.364a1 1 0 1 1 1.902.618 5.644 5.644 0 0 0-.275 1.746v2.112ZM1.5 259a1 1 0 0 1 0-2h1.867a1 1 0 0 1 0 2H1.5Zm7.467 0a1 1 0 0 1 0-2H12.7a1 1 0 0 1 0 2H8.967Zm9.333 0a1 1 0 0 1 0-2h3.733a1 1 0 0 1 0 2H18.3Zm9.333 0a1 1 0 0 1 0-2H29.5c.693 0 1.373-.054 2.036-.158a1 1 0 1 1 .31 1.975A15.01 15.01 0 0 1 29.5 259h-1.867Zm10.685-2.864a1 1 0 0 1-1.177-1.617 13.089 13.089 0 0 0 2.878-2.878 1 1 0 1 1 1.617 1.177 15.088 15.088 0 0 1-3.318 3.318Zm6-9.79a1 1 0 0 1-1.976-.31A13.12 13.12 0 0 0 42.5 244v-2a1 1 0 0 1 2 0v2c0 .797-.062 1.581-.182 2.346ZM44.5 236a1 1 0 0 1-2 0v-4a1 1 0 0 1 2 0v4Zm0-10a1 1 0 0 1-2 0v-4a1 1 0 0 1 2 0v4Zm0-10a1 1 0 0 1-2 0v-4a1 1 0 0 1 2 0v4Zm0-10a1 1 0 0 1-2 0v-4a1 1 0 0 1 2 0v4Zm0-10a1 1 0 0 1-2 0v-4a1 1 0 0 1 2 0v4Zm0-10a1 1 0 0 1-2 0v-4a1 1 0 0 1 2 0v4Zm0-10a1 1 0 0 1-2 0v-2a1 1 0 0 1 2 0v2Zm-44-2a1 1 0 0 0 1 1h1.867a1 1 0 0 0 0-2H1.5a1 1 0 0 0-1 1Zm7.467 0a1 1 0 0 0 1 1H12.7a1 1 0 0 0 0-2H8.967a1 1 0 0 0-1 1Zm9.333 0a1 1 0 0 0 1 1h3.733a1 1 0 0 0 0-2H18.3a1 1 0 0 0-1 1Zm9.333 0a1 1 0 0 0 1 1H29.5c.797 0 1.581-.062 2.346-.183a1 1 0 1 0-.31-1.975c-.663.104-1.343.158-2.036.158h-1.867a1 1 0 0 0-1 1Zm10.288-2.084a1 1 0 0 0 1.397.22 15.088 15.088 0 0 0 3.318-3.318 1 1 0 0 0-1.617-1.177 13.089 13.089 0 0 1-2.878 2.878 1 1 0 0 0-.22 1.397Zm6.253-8.737a1 1 0 0 0 1.144-.833c.12-.765.182-1.549.182-2.346v-2a1 1 0 0 0-2 0v2c0 .693-.054 1.373-.158 2.036a1 1 0 0 0 .832 1.143ZM43.5 153a1 1 0 0 0 1-1v-4a1 1 0 0 0-2 0v4a1 1 0 0 0 1 1Zm0-10a1 1 0 0 0 1-1v-4a1 1 0 0 0-2 0v4a1 1 0 0 0 1 1Zm0-10a1 1 0 0 0 1-1v-4a1 1 0 0 0-2 0v4a1 1 0 0 0 1 1Zm0-10a1 1 0 0 0 1-1v-4a1 1 0 0 0-2 0v4a1 1 0 0 0 1 1Zm0-10a1 1 0 0 0 1-1v-4a1 1 0 0 0-2 0v4a1 1 0 0 0 1 1Zm0-10a1 1 0 0 0 1-1v-4a1 1 0 1 0-2 0v4a1 1 0 0 0 1 1Zm0-10a1 1 0 0 0 1-1v-2a1 1 0 1 0-2 0v2a1 1 0 0 0 1 1Z" fill="#666"/></svg>