<?xml version="1.0" encoding="UTF-8" standalone="no"?>
<svg
   height="325"
   width="95"
   viewBox="0 0 93 330.09804"
   fill="none"
   version="1.1"
   id="svg44"
   sodipodi:docname="arrows_all-to-1.svg"
   inkscape:version="1.2 (dc2aeda, 2022-05-15)"
   xmlns:inkscape="http://www.inkscape.org/namespaces/inkscape"
   xmlns:sodipodi="http://sodipodi.sourceforge.net/DTD/sodipodi-0.dtd"
   xmlns="http://www.w3.org/2000/svg"
   xmlns:svg="http://www.w3.org/2000/svg">
  <defs
     id="defs48">
    <inkscape:path-effect
       effect="fillet_chamfer"
       id="path-effect10225"
       is_visible="true"
       lpeversion="1"
       nodesatellites_param="F,0,0,1,0,0,0,1 @ F,0,0,1,0,7,0,1 @ F,0,0,1,0,7,0,1 @ F,0,0,1,0,7,0,1"
       unit="px"
       method="auto"
       mode="F"
       radius="7"
       chamfer_steps="1"
       flexible="false"
       use_knot_distance="true"
       apply_no_radius="true"
       apply_with_radius="true"
       only_selected="false"
       hide_knots="false" />
    <inkscape:path-effect
       effect="fillet_chamfer"
       id="path-effect7359"
       is_visible="true"
       lpeversion="1"
       nodesatellites_param="F,0,0,1,0,0,0,1 @ F,0,0,1,0,10,0,1 @ F,0,0,1,0,10,0,1"
       unit="px"
       method="auto"
       mode="F"
       radius="10"
       chamfer_steps="1"
       flexible="false"
       use_knot_distance="true"
       apply_no_radius="true"
       apply_with_radius="true"
       only_selected="false"
       hide_knots="false" />
    <inkscape:path-effect
       effect="fillet_chamfer"
       id="path-effect7309"
       is_visible="true"
       lpeversion="1"
       nodesatellites_param="F,0,0,1,0,0,0,1 @ F,0,0,1,0,10,0,1 @ F,0,0,1,0,10,0,1"
       unit="px"
       method="auto"
       mode="F"
       radius="10"
       chamfer_steps="1"
       flexible="false"
       use_knot_distance="true"
       apply_no_radius="true"
       apply_with_radius="true"
       only_selected="false"
       hide_knots="false" />
    <inkscape:path-effect
       effect="fillet_chamfer"
       id="path-effect7243"
       is_visible="true"
       lpeversion="1"
       nodesatellites_param="F,0,0,1,0,0,0,1 @ F,0,0,1,0,0,0,1 @ F,0,0,1,0,0,0,1 @ F,0,0,1,0,0,0,1"
       unit="px"
       method="auto"
       mode="F"
       radius="0"
       chamfer_steps="1"
       flexible="false"
       use_knot_distance="true"
       apply_no_radius="true"
       apply_with_radius="true"
       only_selected="false"
       hide_knots="false" />
  </defs>
  <sodipodi:namedview
     id="namedview46"
     pagecolor="#ffffff"
     bordercolor="#000000"
     borderopacity="0.25"
     inkscape:showpageshadow="2"
     inkscape:pageopacity="0.0"
     inkscape:pagecheckerboard="0"
     inkscape:deskcolor="#d1d1d1"
     showgrid="false"
     inkscape:zoom="3.8616223"
     inkscape:cx="37.937423"
     inkscape:cy="85.326832"
     inkscape:window-width="1512"
     inkscape:window-height="945"
     inkscape:window-x="0"
     inkscape:window-y="37"
     inkscape:window-maximized="0"
     inkscape:current-layer="layer2" />
  <g
     inkscape:groupmode="layer"
     id="layer2"
     inkscape:label="Rounded Corners">
    <g
       id="path3954"
       inkscape:label="path3954">
      <path
         style="color:#000000;fill:#666666;stroke-linecap:round;stroke-linejoin:round;stroke-dasharray:4.06275, 6.09412;-inkscape-stroke:none"
         d="m 55.871094,32.660156 a 1.015685,1.015685 0 0 0 -1.015625,1.015625 1.015685,1.015685 0 0 0 1.015625,1.015625 h 4.0625 a 1.015685,1.015685 0 0 0 1.015625,-1.015625 1.015685,1.015685 0 0 0 -1.015625,-1.015625 z m 10.158203,0 a 1.015685,1.015685 0 0 0 -1.015625,1.015625 1.015685,1.015685 0 0 0 1.015625,1.015625 h 4.0625 a 1.015685,1.015685 0 0 0 1.015625,-1.015625 1.015685,1.015685 0 0 0 -1.015625,-1.015625 z m 10.15625,0 a 1.015685,1.015685 0 0 0 -1.015625,1.015625 1.015685,1.015685 0 0 0 1.015625,1.015625 h 4.0625 a 1.015685,1.015685 0 0 0 1.015625,-1.015625 1.015685,1.015685 0 0 0 -1.015625,-1.015625 z m 10.15625,0 a 1.015685,1.015685 0 0 0 -1.015625,1.015625 1.015685,1.015685 0 0 0 1.015625,1.015625 h 1.292969 a 1.015685,1.015685 0 0 0 1.015625,-1.015625 1.015685,1.015685 0 0 0 -1.015625,-1.015625 z m -36.681641,0.04102 c -0.373684,0.0439 -0.743234,0.114198 -1.105469,0.21289 -1.148873,0.31263 -2.214757,0.895964 -3.097656,1.69336 a 1.015685,1.015685 0 0 0 -0.07227,1.435547 1.015685,1.015685 0 0 0 1.433593,0.07227 c 0.64406,-0.581686 1.434795,-1.012763 2.271485,-1.240234 0.265459,-0.07233 0.536135,-0.126193 0.808593,-0.158203 a 1.015685,1.015685 0 0 0 0.890625,-1.126953 1.015685,1.015685 0 0 0 -1.128906,-0.888672 z m -5.630859,7.117187 a 1.015685,1.015685 0 0 0 -1.138672,0.875 c -0.02961,0.225968 -0.07626,0.455128 -0.134766,0.683594 -0.228482,0.891279 -0.673077,1.735287 -1.279297,2.429688 a 1.015685,1.015685 0 0 0 0.09766,1.43164 1.015685,1.015685 0 0 0 1.433593,-0.0957 c 0.81649,-0.935257 1.407998,-2.057134 1.716797,-3.261719 0.07678,-0.299825 0.138432,-0.607046 0.179688,-0.921875 a 1.015685,1.015685 0 0 0 -0.875,-1.140625 z M 2.3183594,45.863281 a 1.015685,1.015685 0 0 0 -1.015625,1.015625 1.015685,1.015685 0 0 0 1.015625,1.015625 h 4.0625 a 1.015685,1.015685 0 0 0 1.015625,-1.015625 1.015685,1.015685 0 0 0 -1.015625,-1.015625 z m 10.1562496,0 a 1.015685,1.015685 0 0 0 -1.015625,1.015625 1.015685,1.015685 0 0 0 1.015625,1.015625 h 4.0625 a 1.015685,1.015685 0 0 0 1.015625,-1.015625 1.015685,1.015685 0 0 0 -1.015625,-1.015625 z m 10.15625,0 a 1.015685,1.015685 0 0 0 -1.015625,1.015625 1.015685,1.015685 0 0 0 1.015625,1.015625 h 4.0625 a 1.015685,1.015685 0 0 0 1.015625,-1.015625 1.015685,1.015685 0 0 0 -1.015625,-1.015625 z m 10.158203,0 a 1.015685,1.015685 0 0 0 -1.015625,1.015625 1.015685,1.015685 0 0 0 1.015625,1.015625 h 4.0625 a 1.015685,1.015685 0 0 0 1.015625,-1.015625 1.015685,1.015685 0 0 0 -1.015625,-1.015625 z"
         id="path10404" />
      <g
         id="g10394">
        <g
           id="path10396">
          <path
             style="color:#000000;fill:#666666;fill-rule:evenodd;stroke-width:1.01568pt;-inkscape-stroke:none"
             d="m 93.495796,33.675462 -8.785675,5.078425 v -10.15685 z"
             id="path10400" />
          <path
             style="color:#000000;fill:#666666;fill-rule:evenodd;-inkscape-stroke:none"
             d="m 84.033203,27.423828 v 12.503906 l 10.816406,-6.251953 -1.015625,-0.585937 z m 1.353516,2.347656 6.755859,3.904297 -6.755859,3.904297 z"
             id="path10402" />
        </g>
      </g>
    </g>
    <path
       style="fill:none;fill-opacity:1;stroke:#666666;stroke-width:2.03137;stroke-linecap:round;stroke-linejoin:round;stroke-dasharray:4.06275, 6.09412;stroke-dashoffset:0;stroke-opacity:1"
       d="m 2.317647,139.30684 h 31.643137 a 10,10 135 0 0 10,-10 V 40.785266"
       id="path4914"
       sodipodi:nodetypes="ccc"
       inkscape:path-effect="#path-effect7309"
       inkscape:original-d="M 2.317647,139.30684 H 43.960784 V 40.785266" />
    <path
       style="fill:none;fill-opacity:1;stroke:#666666;stroke-width:2.03137;stroke-linecap:round;stroke-linejoin:round;stroke-dasharray:4.06275, 6.09412;stroke-dashoffset:0;stroke-opacity:1"
       d="m 2.317647,231.73429 h 31.643137 a 10,10 135 0 0 10,-10 v -88.52157"
       id="path4965"
       sodipodi:nodetypes="ccc"
       inkscape:path-effect="#path-effect7359"
       inkscape:original-d="M 2.317647,231.73429 H 43.960784 V 133.21272" />
  </g>
</svg>
