<svg height="253" width="95" fill="none" xmlns="http://www.w3.org/2000/svg" viewBox="0 0 93 254"><path fill-rule="evenodd" clip-rule="evenodd" d="M1.5 0a1 1 0 1 0 0 2h1.867a1 1 0 0 0 0-2H1.5Zm7.467 0a1 1 0 1 0 0 2H12.7a1 1 0 1 0 0-2H8.967ZM18.3 0a1 1 0 1 0 0 2h3.733a1 1 0 1 0 0-2H18.3Zm9.333 0a1 1 0 1 0 0 2H29.5c.693 0 1.373.054 2.036.158a1 1 0 0 0 .31-1.975A15.105 15.105 0 0 0 29.5 0h-1.867Zm10.685 2.864a1 1 0 0 0-1.177 1.617 13.082 13.082 0 0 1 2.878 2.878 1 1 0 0 0 1.617-1.177 15.083 15.083 0 0 0-3.318-3.318Zm6 9.79a1 1 0 0 0-1.976.31c.104.663.158 1.343.158 2.036v2.008a1 1 0 1 0 2 0V15c0-.797-.062-1.581-.182-2.346Zm.182 10.379a1 1 0 1 0-2 0v4.016a1 1 0 1 0 2 0v-4.016Zm0 10.041a1 1 0 1 0-2 0v4.016a1 1 0 1 0 2 0v-4.016Zm0 10.041a1 1 0 1 0-2 0v4.017a1 1 0 1 0 2 0v-4.017Zm0 10.041a1 1 0 1 0-2 0v4.017a1 1 0 1 0 2 0v-4.017Zm0 10.041a1 1 0 1 0-2 0v4.017a1 1 0 1 0 2 0v-4.017Zm0 10.041a1 1 0 1 0-2 0v2.009c0 .571.045 1.133.13 1.681a1 1 0 0 0 1.977-.31 8.827 8.827 0 0 1-.107-1.371v-2.009Zm1.67 7.153a1 1 0 1 0-1.616 1.177 10.81 10.81 0 0 0 2.378 2.378 1 1 0 1 0 1.177-1.617 8.805 8.805 0 0 1-1.938-1.938ZM52.28 86h-2.246a1 1 0 1 1 0-2h1.221a.996.996 0 0 1 .628-.107c.447.07.904.107 1.371.107h.824c.033 0 .064.001.095.004.11-.003.218-.004.328-.004a1 1 0 1 1 0 2c-.533 0-1.056.042-1.566.122a.996.996 0 0 1-.655-.122ZM1.5 170a1 1 0 0 1 0-2h1.867a1 1 0 0 1 0 2H1.5Zm7.467 0a1 1 0 0 1 0-2H12.7a1 1 0 0 1 0 2H8.967Zm9.333 0a1 1 0 0 1 0-2h3.733a1 1 0 0 1 0 2H18.3Zm9.333 0a1 1 0 0 1 0-2H29.5c.693 0 1.373-.054 2.036-.158a1 1 0 1 1 .31 1.975A15.01 15.01 0 0 1 29.5 170h-1.867Zm10.685-2.864a1 1 0 0 1-1.177-1.617 13.089 13.089 0 0 0 2.878-2.878 1 1 0 1 1 1.617 1.177 15.088 15.088 0 0 1-3.318 3.318Zm6-9.79a1 1 0 0 1-1.976-.31A13.12 13.12 0 0 0 42.5 155v-1.967a1 1 0 0 1 2 0V155c0 .797-.062 1.581-.182 2.346Zm.182-10.213a1 1 0 1 1-2 0V143.2a1 1 0 0 1 2 0v3.933Zm0-9.833a1 1 0 0 1-2 0v-3.933a1 1 0 1 1 2 0v3.933Zm0-9.833a1 1 0 0 1-2 0v-3.934a1 1 0 0 1 2 0v3.934Zm0-9.834a1 1 0 1 1-2 0V113.7a1 1 0 0 1 2 0v3.933Zm0-9.833a1 1 0 0 1-2 0v-3.933a1 1 0 1 1 2 0v3.933Zm0-9.833a1 1 0 0 1-2 0V96c0-.638.05-1.265.146-1.877a1 1 0 0 1 1.976.31c-.08.51-.122 1.034-.122 1.567v1.967Zm1.909-7.845a1 1 0 1 1-1.617-1.176 12.06 12.06 0 0 1 2.654-2.654 1 1 0 1 1 1.176 1.617 10.062 10.062 0 0 0-2.213 2.213ZM.5 253a1 1 0 0 0 1 1h1.867a1 1 0 0 0 0-2H1.5a1 1 0 0 0-1 1Zm7.467 0a1 1 0 0 0 1 1H12.7a1 1 0 0 0 0-2H8.967a1 1 0 0 0-1 1Zm9.333 0a1 1 0 0 0 1 1h3.733a1 1 0 0 0 0-2H18.3a1 1 0 0 0-1 1Zm9.333 0a1 1 0 0 0 1 1H29.5c.797 0 1.581-.062 2.346-.183a1 1 0 1 0-.31-1.975c-.663.104-1.343.158-2.036.158h-1.867a1 1 0 0 0-1 1Zm10.288-2.084a1 1 0 0 0 1.397.22 15.088 15.088 0 0 0 3.318-3.318 1 1 0 0 0-1.617-1.177 13.089 13.089 0 0 1-2.878 2.878 1 1 0 0 0-.22 1.397Zm6.253-8.737a1 1 0 0 0 1.144-.833c.12-.765.182-1.549.182-2.346v-2.08a1 1 0 1 0-2 0V239c0 .693-.054 1.373-.158 2.036a1 1 0 0 0 .832 1.143Zm.326-10.5a1 1 0 0 0 1-1v-4.161a1 1 0 1 0-2 0v4.161a1 1 0 0 0 1 1Zm0-10.402a1 1 0 0 0 1-1v-4.161a1 1 0 0 0-2 0v4.161a1 1 0 0 0 1 1Zm0-10.402a1 1 0 0 0 1-1v-4.161a1 1 0 0 0-2 0v4.161a1 1 0 0 0 1 1Zm0-10.402a1 1 0 0 0 1-1v-4.161a1 1 0 0 0-2 0v4.161a1 1 0 0 0 1 1Zm0-10.402a1 1 0 0 0 1-1v-4.161a1 1 0 0 0-2 0v4.161a1 1 0 0 0 1 1Zm0-10.402a1 1 0 0 0 1-1v-4.161a1 1 0 0 0-2 0v4.161a1 1 0 0 0 1 1Zm0-10.402a1 1 0 0 0 1-1v-2.08a1 1 0 0 0-2 0v2.08a1 1 0 0 0 1 1ZM92.5 85l-10-5.773V84h-2.133a1 1 0 1 0 0 2H82.5v4.773L92.5 85Zm-91-1a1 1 0 1 0 0 2h2.022a1 1 0 1 0 0-2H1.5Zm8.089 0a1 1 0 1 0 0 2h4.044a1 1 0 1 0 0-2H9.59ZM19.7 84a1 1 0 1 0 0 2h4.044a1 1 0 1 0 0-2H19.7Zm10.111 0a1 1 0 1 0 0 2h4.045a1 1 0 0 0 0-2H29.81Zm10.111 0a1 1 0 1 0 0 2h4.045a1 1 0 1 0 0-2h-4.045Zm20.222 0a1 1 0 0 0 0 2h4.045a1 1 0 1 0 0-2h-4.045Zm10.112 0a1 1 0 1 0 0 2H74.3a1 1 0 1 0 0-2h-4.044Z" fill="#666"/></svg>